<?xml version="1.0" standalone="no"?>
<!DOCTYPE svg PUBLIC "-//W3C//DTD SVG 20010904//EN"
 "http://www.w3.org/TR/2001/REC-SVG-20010904/DTD/svg10.dtd">
<svg version="1.0" xmlns="http://www.w3.org/2000/svg"
 width="1092.000000pt" height="1092.000000pt" viewBox="0 0 1092.000000 1092.000000"
 preserveAspectRatio="xMidYMid meet">
<metadata>
Created by potrace 1.11, written by Peter Selinger 2001-2013
</metadata>
<g transform="translate(0.000000,1092.000000) scale(0.100000,-0.100000)"
fill="#000000" stroke="none">
<path d="M297 10229 c-62 -15 -137 -58 -185 -107 -40 -41 -90 -128 -99 -172
-13 -58 -14 -120 -3 -173 11 -59 70 -184 94 -199 6 -4 8 -8 4 -8 -4 0 10 -29
32 -65 22 -36 40 -70 40 -75 0 -6 4 -10 8 -10 4 0 13 -12 19 -27 12 -28 43
-84 74 -133 32 -51 70 -120 68 -126 0 -4 3 -10 8 -13 5 -3 20 -26 34 -51 13
-25 27 -47 30 -50 3 -3 12 -20 20 -37 8 -18 17 -33 21 -33 5 0 8 -4 8 -8 0 -5
28 -57 63 -116 34 -59 75 -131 90 -159 15 -28 48 -84 72 -124 25 -41 45 -75
45 -77 0 -2 18 -34 40 -70 22 -36 40 -69 40 -73 0 -3 6 -14 14 -22 7 -9 27
-41 43 -71 58 -104 87 -155 92 -160 3 -3 19 -30 35 -60 16 -30 35 -62 42 -71
8 -9 11 -19 7 -22 -3 -4 -1 -7 5 -7 7 0 12 -5 12 -10 0 -6 21 -45 46 -88 86
-144 111 -187 118 -202 3 -8 20 -37 36 -65 17 -27 34 -57 37 -65 4 -8 9 -17
13 -20 3 -3 21 -32 40 -65 18 -33 41 -73 50 -90 55 -95 134 -233 144 -250 6
-11 54 -93 106 -183 126 -216 129 -221 153 -267 12 -22 24 -42 27 -45 3 -3 11
-16 18 -30 7 -14 26 -47 43 -75 16 -27 33 -58 36 -67 3 -10 9 -18 13 -18 4 0
15 -19 26 -42 10 -24 24 -49 31 -56 7 -7 13 -19 13 -27 0 -7 3 -15 8 -17 6 -3
68 -107 170 -288 13 -25 33 -57 43 -72 11 -14 19 -33 19 -42 0 -9 5 -16 10
-16 6 0 13 -8 17 -17 3 -10 36 -70 73 -133 67 -113 88 -151 138 -240 14 -25
29 -46 34 -48 4 -2 8 -12 8 -22 0 -9 6 -22 13 -28 7 -6 24 -34 37 -62 13 -27
27 -50 32 -50 4 0 8 -4 8 -10 0 -5 22 -47 49 -92 56 -96 82 -141 124 -218 16
-30 35 -62 41 -70 13 -17 30 -47 61 -105 12 -22 50 -87 83 -143 34 -57 62
-106 62 -108 0 -2 17 -32 38 -66 21 -35 52 -88 69 -118 16 -30 53 -94 81 -142
29 -48 52 -91 52 -97 0 -6 5 -11 10 -11 6 0 10 -4 10 -10 0 -5 18 -39 40 -75
22 -36 40 -70 40 -75 0 -6 4 -10 8 -10 4 0 13 -12 19 -27 12 -28 32 -64 99
-174 19 -31 34 -62 34 -68 0 -6 5 -11 10 -11 6 0 10 -4 10 -9 0 -5 19 -42 43
-83 24 -40 55 -93 69 -118 14 -25 48 -84 77 -132 28 -48 51 -91 51 -97 0 -6 5
-11 10 -11 6 0 10 -4 10 -9 0 -7 24 -52 60 -111 5 -8 39 -67 75 -130 36 -63
70 -122 75 -130 6 -8 18 -30 27 -48 9 -17 20 -32 25 -32 4 0 8 -7 8 -15 0 -14
25 -61 40 -75 3 -3 14 -23 26 -45 24 -45 33 -62 133 -232 39 -68 71 -126 71
-129 0 -4 6 -15 14 -23 7 -9 27 -41 44 -71 17 -30 60 -106 96 -169 36 -62 66
-117 66 -122 0 -5 5 -9 10 -9 6 0 10 -4 10 -9 0 -5 36 -70 80 -146 44 -76 80
-141 80 -146 0 -5 5 -9 10 -9 6 0 10 -4 10 -9 0 -9 89 -169 128 -231 9 -14 14
-26 11 -26 -2 -1 3 -10 12 -20 9 -11 40 -62 69 -114 30 -52 57 -97 62 -98 4
-2 8 -12 8 -23 0 -10 4 -19 8 -19 5 0 16 -18 26 -40 10 -22 22 -40 27 -40 5 0
9 -5 9 -11 0 -19 88 -95 132 -115 24 -10 45 -21 48 -24 9 -9 43 -13 135 -13
82 -1 96 2 158 32 61 29 104 63 147 117 22 28 170 284 170 295 0 5 4 9 9 9 5
0 12 11 15 25 4 14 11 25 16 25 6 0 10 5 10 11 0 6 17 39 37 73 21 33 37 64
35 69 -1 4 2 7 8 7 5 0 10 4 10 9 0 5 29 59 65 120 36 60 65 114 65 120 0 6 5
11 10 11 6 0 10 4 10 9 0 5 17 38 38 72 22 35 47 81 57 102 9 20 21 37 26 37
5 0 9 9 9 20 0 11 4 20 9 20 5 0 11 8 15 18 6 19 51 98 65 116 4 6 23 38 41
71 18 33 38 63 44 67 6 4 8 8 4 8 -4 0 10 29 31 64 22 35 56 95 77 132 20 38
43 76 50 85 8 8 14 20 14 26 0 6 7 16 15 23 8 7 13 16 10 20 -3 4 2 13 10 20
8 7 15 19 15 26 0 8 3 14 8 14 4 0 16 19 27 43 11 23 22 44 26 47 3 3 19 30
36 60 17 30 40 71 51 90 12 19 27 46 35 60 20 36 49 86 93 160 21 36 39 67 39
70 0 3 8 16 17 30 17 28 77 130 116 200 14 25 29 48 34 51 6 3 8 8 7 10 -3 4
39 78 124 224 23 39 47 79 53 90 6 11 29 52 51 90 22 39 53 93 68 120 16 28
31 52 35 55 3 3 14 22 23 42 10 20 22 40 27 43 6 4 8 10 6 14 -3 4 3 17 14 28
10 12 16 24 13 27 -4 3 -2 6 4 6 5 0 18 19 29 43 10 23 21 44 25 47 10 8 279
481 279 491 0 5 4 9 8 9 5 0 19 23 32 50 13 28 26 50 29 50 3 0 13 15 20 32 8
18 32 61 53 96 21 34 38 67 38 72 0 6 3 10 8 10 4 0 12 10 18 23 23 49 59 112
66 115 5 2 8 7 8 11 0 7 33 66 196 346 13 22 27 47 30 55 4 8 15 26 24 40 16
23 27 43 96 168 15 26 30 52 34 57 5 6 23 37 41 70 18 33 35 62 38 65 3 3 13
18 21 35 8 16 57 101 108 188 50 87 92 163 92 168 0 5 5 9 10 9 6 0 9 3 8 8
-1 4 5 18 13 32 32 50 79 130 79 134 0 2 34 61 75 131 41 69 75 131 75 136 0
5 4 9 8 9 4 0 13 12 19 28 12 28 54 103 63 112 6 6 29 46 65 115 15 28 33 57
41 66 8 8 14 19 14 22 0 12 193 341 205 349 5 4 7 8 3 8 -4 0 8 25 27 55 20
30 32 55 28 55 -4 0 -3 4 3 8 6 4 22 27 36 52 29 53 47 84 117 203 28 49 51
93 51 98 0 5 4 9 8 9 4 0 13 12 20 28 6 15 66 119 132 232 67 113 126 217 133
233 6 15 15 27 19 27 4 0 8 4 8 9 0 9 183 330 200 349 6 6 8 12 4 12 -3 0 -1
7 6 15 14 17 43 66 62 105 7 14 16 30 21 35 16 21 76 126 82 145 4 11 11 20
17 20 6 0 8 3 5 7 -4 3 -1 13 6 22 8 9 52 84 99 166 47 83 95 166 107 185 32
54 72 140 79 169 7 31 8 145 1 181 -7 42 -56 133 -91 171 -39 42 -121 99 -142
99 -8 0 -17 4 -21 9 -3 6 -13 11 -23 12 -9 1 -350 3 -757 6 l-740 3 -35 -61
c-19 -34 -46 -82 -60 -108 -13 -25 -27 -48 -30 -51 -4 -3 -20 -30 -36 -60 -16
-30 -32 -56 -36 -58 -5 -2 -8 -8 -8 -12 0 -10 -171 -308 -201 -352 -11 -15
-19 -30 -19 -33 0 -4 -29 -56 -65 -116 -36 -61 -65 -115 -65 -120 0 -5 -4 -9
-9 -9 -5 0 -12 -11 -15 -25 -4 -14 -11 -25 -16 -25 -6 0 -10 -9 -10 -20 0 -11
-4 -20 -10 -20 -5 0 -12 -11 -16 -25 -3 -14 -9 -25 -13 -25 -4 0 -12 -12 -19
-27 -7 -16 -21 -41 -30 -58 -123 -213 -188 -325 -204 -347 -11 -16 -16 -28
-12 -28 4 0 0 -8 -8 -17 -15 -18 -137 -226 -195 -334 -17 -32 -51 -91 -75
-131 -24 -40 -47 -80 -51 -88 -4 -8 -15 -28 -26 -45 -10 -16 -27 -46 -38 -65
-11 -19 -53 -91 -93 -160 -40 -69 -84 -145 -97 -170 -13 -25 -35 -63 -48 -85
-14 -22 -54 -92 -90 -155 -80 -139 -84 -146 -111 -190 -12 -19 -37 -62 -55
-95 -18 -33 -59 -104 -91 -158 -32 -55 -58 -101 -58 -103 0 -3 -15 -28 -33
-57 -18 -29 -38 -63 -45 -77 -8 -14 -21 -38 -30 -55 -26 -46 -132 -228 -142
-245 -23 -38 -95 -166 -99 -175 -2 -5 -7 -12 -11 -15 -3 -3 -13 -21 -22 -40
-23 -49 -95 -124 -143 -149 -148 -75 -327 -14 -405 139 -11 22 -18 40 -14 40
4 0 2 6 -4 13 -12 15 -8 130 6 174 6 18 20 46 31 62 12 16 21 32 21 35 0 4 11
23 24 44 12 20 23 39 23 42 1 3 24 42 52 88 28 45 48 82 44 82 -4 0 2 7 13 15
10 8 15 15 9 15 -7 0 -7 3 0 8 6 4 17 21 26 37 9 17 42 75 74 130 32 55 69
120 83 144 14 25 38 67 53 93 16 27 29 53 29 58 0 6 4 10 9 10 5 0 12 11 15
25 4 14 11 25 16 25 6 0 10 5 10 11 0 6 20 45 45 86 25 40 45 75 45 77 0 4
143 249 160 276 6 8 13 22 17 30 6 13 98 172 167 290 15 25 29 53 33 63 3 9 9
17 14 17 5 0 9 4 9 10 0 5 23 47 50 94 28 47 50 88 50 92 0 4 10 21 23 38 12
17 31 49 42 71 11 22 22 42 26 45 3 3 19 30 36 60 46 85 167 294 173 300 3 3
16 26 30 52 14 26 68 121 119 210 52 90 101 174 109 188 7 14 22 39 32 55 11
17 27 47 37 68 10 20 21 37 25 37 5 0 8 4 8 9 0 5 38 75 85 156 47 80 85 150
85 156 0 5 4 9 9 9 5 0 11 8 14 18 6 18 29 58 125 220 34 57 62 107 62 111 0
4 5 12 12 19 6 6 13 19 14 27 2 13 -51 15 -437 15 l-439 0 -21 -42 c-12 -24
-30 -55 -41 -70 -11 -16 -16 -28 -11 -28 4 0 3 -4 -3 -8 -9 -6 -57 -86 -167
-282 -10 -19 -28 -47 -38 -62 -11 -14 -19 -28 -19 -31 0 -3 -22 -43 -50 -90
-27 -47 -50 -90 -50 -95 0 -6 -3 -12 -7 -14 -10 -4 -42 -57 -50 -80 -3 -10 -9
-18 -14 -18 -5 0 -9 -5 -9 -10 0 -11 -88 -170 -99 -180 -4 -3 -13 -18 -21 -35
-8 -16 -41 -74 -73 -128 -31 -53 -57 -100 -57 -103 0 -2 -8 -17 -19 -32 -30
-44 -150 -256 -149 -266 0 -5 -4 -12 -9 -15 -9 -6 -31 -42 -81 -131 -14 -25
-33 -58 -43 -75 -10 -16 -32 -55 -49 -85 -31 -57 -43 -77 -72 -121 -10 -14
-15 -29 -11 -33 3 -3 2 -6 -4 -6 -6 0 -16 -13 -23 -30 -7 -16 -17 -30 -22 -30
-5 0 -7 -4 -3 -9 3 -5 -1 -15 -8 -23 -7 -7 -18 -24 -24 -38 -7 -14 -24 -43
-38 -65 -14 -22 -28 -46 -31 -53 -4 -8 -45 -80 -92 -160 -46 -81 -94 -163
-104 -182 -11 -19 -47 -81 -79 -137 -33 -56 -59 -106 -59 -112 0 -5 -4 -11 -8
-13 -10 -4 -102 -164 -102 -178 0 -5 -3 -10 -7 -10 -5 0 -13 -10 -19 -23 -6
-12 -28 -51 -49 -87 -20 -36 -46 -81 -57 -100 -11 -19 -44 -76 -74 -127 -30
-51 -54 -97 -54 -102 0 -6 -4 -11 -9 -11 -5 0 -13 -10 -17 -22 -4 -13 -10 -25
-13 -28 -4 -3 -15 -21 -25 -40 -10 -19 -35 -64 -56 -100 -22 -36 -44 -77 -51
-92 -6 -16 -15 -28 -20 -28 -5 0 -9 -4 -9 -9 0 -5 -31 -64 -70 -131 -38 -67
-70 -126 -70 -131 0 -5 -4 -9 -10 -9 -5 0 -10 -4 -10 -9 0 -5 -27 -55 -60
-111 -33 -56 -60 -106 -60 -111 0 -5 -4 -9 -8 -9 -4 0 -13 -12 -19 -27 -7 -16
-20 -41 -30 -58 -10 -16 -43 -73 -73 -125 -30 -52 -59 -103 -65 -112 -5 -9
-31 -55 -57 -101 -26 -47 -60 -99 -75 -117 -26 -30 -113 -96 -113 -86 0 2 -19
-2 -42 -9 -122 -36 -257 19 -329 135 -51 83 -51 210 0 301 17 30 36 66 42 82
6 15 15 27 20 27 5 0 9 4 9 9 0 5 22 47 49 93 26 45 74 127 105 180 31 54 57
101 57 105 0 5 6 15 13 23 7 8 37 58 67 110 30 52 59 104 66 115 6 11 19 34
27 50 9 17 27 48 41 70 14 22 28 48 32 58 3 9 9 17 14 17 5 0 9 5 9 11 0 5 41
80 90 165 50 85 90 159 90 165 0 5 3 9 8 9 4 0 13 13 20 30 7 16 24 45 37 64
13 19 21 37 17 40 -3 3 0 6 6 6 6 0 13 9 17 19 3 11 33 65 66 119 32 55 59
105 59 111 0 6 4 11 8 11 4 0 20 24 35 53 30 56 37 68 167 293 47 81 101 175
120 209 19 34 40 69 46 76 6 8 17 29 25 47 8 17 17 32 21 32 5 0 8 6 8 14 0 8
6 21 13 28 6 7 19 27 27 43 8 17 29 54 47 83 18 29 33 54 33 56 0 2 48 86 107
187 58 101 117 204 131 229 14 25 28 50 32 55 4 6 17 27 29 48 36 63 88 154
122 212 13 22 28 43 34 47 5 4 6 8 2 8 -9 0 40 87 60 108 7 7 13 17 13 22 0 9
64 118 80 138 6 6 8 12 4 12 -3 0 -2 6 4 13 5 6 19 28 30 47 11 19 68 118 126
218 58 101 106 188 106 193 0 5 5 9 10 9 6 0 10 7 10 15 0 8 4 15 10 15 5 0 9
3 8 8 -1 4 14 35 35 70 20 35 37 67 37 72 0 4 3 10 8 12 7 3 25 32 64 108 13
25 29 51 36 58 6 7 12 18 12 23 0 5 -193 9 -485 9 l-485 0 -13 -27 c-6 -16
-14 -30 -17 -33 -10 -9 -90 -153 -90 -161 0 -5 -4 -9 -8 -9 -4 0 -16 -17 -26
-37 -10 -21 -25 -53 -34 -70 -9 -18 -20 -33 -24 -33 -4 0 -8 -4 -8 -9 0 -8
-123 -226 -158 -281 -9 -14 -17 -27 -17 -30 -1 -6 -73 -130 -117 -201 -15 -25
-28 -51 -28 -57 0 -7 -4 -12 -9 -12 -5 0 -11 -8 -14 -17 -4 -10 -20 -40 -37
-68 -17 -27 -36 -61 -43 -75 -11 -23 -54 -98 -85 -145 -6 -11 -15 -27 -19 -35
-4 -8 -26 -48 -50 -88 -24 -40 -43 -77 -43 -82 0 -6 -4 -10 -8 -10 -4 0 -13
-12 -20 -27 -7 -16 -23 -46 -36 -68 -206 -355 -286 -496 -286 -505 0 -5 -3
-10 -8 -10 -4 0 -25 -34 -47 -75 -21 -41 -43 -75 -47 -75 -4 0 -8 -8 -8 -18 0
-10 -9 -28 -20 -40 -11 -12 -20 -28 -20 -37 0 -8 -4 -15 -8 -15 -5 0 -19 -22
-32 -50 -13 -27 -26 -50 -29 -50 -3 0 -12 -15 -20 -32 -8 -18 -26 -51 -40 -73
-14 -22 -33 -53 -41 -70 -8 -16 -17 -32 -20 -35 -3 -3 -17 -26 -30 -52 -14
-27 -28 -48 -32 -48 -5 0 -8 -7 -8 -16 0 -8 -7 -22 -15 -30 -8 -8 -20 -23 -27
-33 -7 -10 -33 -32 -58 -48 -148 -98 -351 -42 -431 121 -26 52 -35 151 -19
202 10 31 83 168 155 292 6 9 28 49 49 87 22 39 44 73 50 77 6 4 8 8 4 8 -4 0
7 24 25 53 18 28 41 69 52 90 11 20 24 37 28 37 5 0 7 7 3 15 -3 8 -1 15 3 15
8 0 34 43 65 107 6 13 15 23 19 23 5 0 5 5 2 10 -3 6 -3 10 2 10 4 0 19 21 33
48 13 26 27 49 30 52 3 3 13 21 24 40 57 106 80 145 88 148 4 2 8 9 8 15 0 7
27 56 60 111 33 54 62 107 65 117 4 10 11 19 16 19 6 0 8 4 5 9 -3 5 1 14 9
21 8 7 15 16 15 20 0 5 20 43 45 84 25 42 45 81 45 86 0 6 5 10 10 10 6 0 10
5 10 10 0 6 11 27 23 48 13 20 35 57 49 82 14 25 60 106 103 180 43 74 83 144
89 155 6 11 13 22 16 25 3 3 18 30 34 60 16 30 41 73 55 95 14 22 26 42 26 45
1 6 74 131 117 201 15 25 28 49 28 52 0 11 -4869 6 -4913 -4z"/>
</g>
</svg>
