<?xml version="1.0" encoding="UTF-8" standalone="no"?><!DOCTYPE svg PUBLIC "-//W3C//DTD SVG 1.1//EN" "http://www.w3.org/Graphics/SVG/1.1/DTD/svg11.dtd"><svg width="42px" height="42px" viewBox="0 0 1092 956" version="1.1" xmlns="http://www.w3.org/2000/svg" xmlns:xlink="http://www.w3.org/1999/xlink" xml:space="preserve" xmlns:serif="http://www.serif.com/" style="fill-rule:evenodd;clip-rule:evenodd;stroke-linejoin:round;stroke-miterlimit:2;"><path d="M1052.91,0l-139.362,0l-234.728,407.309c-5.525,9.582 -15.56,14.941 -25.875,14.941c-5.057,0 -10.178,-1.284 -14.872,-3.987c-14.275,-8.232 -19.181,-26.472 -10.953,-40.747l217.559,-377.516l-88.312,0l-279.957,485.791c-5.522,9.578 -15.556,14.937 -25.875,14.937c-5.056,0 -10.178,-1.284 -14.868,-3.987c-14.275,-8.228 -19.182,-26.472 -10.954,-40.747l262.785,-455.994l-97.194,0l-160.7,278.85c-5.522,9.578 -15.559,14.941 -25.875,14.941c-5.056,0 -10.178,-1.285 -14.872,-3.991c-14.275,-8.225 -19.178,-26.469 -10.95,-40.747l143.528,-249.053l-482.415,0c-29.991,0 -48.738,32.469 -33.741,58.441l506.947,878.056c14.997,25.975 52.484,25.975 67.481,0l506.944,-878.056c14.997,-25.972 -3.747,-58.441 -33.741,-58.441" style="fill:#fff;fill-rule:nonzero;"/></svg>